<svg width="256" height="256" viewBox="0 0 256 256" fill="none" xmlns="http://www.w3.org/2000/svg">
<circle cx="128" cy="128" r="125" fill="white"/>
<mask id="mask0_190_622" style="mask-type:alpha" maskUnits="userSpaceOnUse" x="3" y="3" width="250" height="250">
<circle cx="128" cy="128" r="125" fill="white"/>
<circle cx="128" cy="128" r="125" fill="#CB0505" fill-opacity="0.2"/>
</mask>
<g mask="url(#mask0_190_622)">
<path d="M144.767 133.115C136.346 132.617 134.169 127.046 130.323 122.737C129.234 124.196 128.273 125.192 127.659 126.362C120.883 139.359 107.191 142.069 94.7857 138.212C77.909 132.953 66.0942 121.694 57.6153 106.683C54.1288 100.52 50.9434 94.0917 48.453 87.4661C38.6305 61.2881 52.4608 28.9247 83.9092 21.9632C94.4962 19.6234 104.261 22.913 113.771 27.1988C115.543 27.998 117.257 28.9131 119.215 29.8745C121.497 25.6466 123.477 21.523 125.875 17.6426C132.802 6.44171 148.694 4.49573 157.277 14.4688C161.459 19.3222 164.343 25.6235 166.578 31.7278C169.347 39.28 170.771 47.3303 172.914 55.1142C174.733 61.7051 176.667 68.2727 178.718 74.8056C181.984 85.2305 187.057 94.6476 194.691 102.594C195.478 103.416 195.93 104.563 197.401 106.961C194.818 105.941 193.498 105.71 192.525 104.991C184.219 98.8407 178.034 90.9874 174.965 81.0953C170.957 68.238 167.609 55.1837 163.625 42.3148C161.609 35.7935 159.107 29.388 156.292 23.1794C153.524 17.0751 148.451 13.9824 141.582 14.1561C134.782 14.3299 129.952 17.4341 127.149 23.6659C126.744 24.5578 126.222 25.3918 125.771 26.2605C122.574 32.4923 122.632 32.4459 127.114 37.6931C135.118 47.0871 142.3 56.9328 144.559 69.5237C145.682 75.7786 145.08 81.7787 142.242 87.4081C139.972 91.914 136.74 95.4237 130.091 95.667C131.516 94.1959 132.338 93.2808 133.219 92.4352C141.698 84.3154 143.806 74.9215 138.651 64.4503C135.304 57.6741 131.69 50.8169 126.987 44.9674C112.404 26.8165 93.9054 22.635 73.241 31.9247C57.5574 38.9789 47.5032 59.4695 51.7774 77.018C55.6809 93.0955 62.6077 108.084 74.0403 120.385C82.357 129.328 92.7124 134.343 105.292 134.424C114.674 134.482 120.443 129.849 123.871 121.625C125.076 118.741 126.06 115.775 127.543 111.768C135.663 117.119 139.346 124.787 144.756 133.092L144.767 133.115Z" fill="#333333"/>
<path d="M266.205 332.3C259.614 328.628 254.019 323.52 248.749 318.214C237.467 306.886 228.374 293.855 220.081 280.198C213.501 269.368 211.022 257.507 210.652 245.148C210.235 231.445 210.362 217.73 210.246 204.016C210.235 202.058 210.165 200.101 210.177 198.143C210.293 180.687 203.598 166.405 190.694 154.671C182.018 146.783 173.69 138.478 165.512 130.057C159.489 123.849 156.906 115.868 156.164 107.412C155.91 104.435 156.941 101.342 157.369 98.4583C161.029 98.2266 161.678 100.231 161.597 102.188C160.96 116.968 169.045 126.976 179.597 135.733C184.485 139.799 189.304 143.957 194.007 148.254C204.049 157.44 213.107 167.575 216.837 180.931C218.911 188.344 219.652 196.336 219.733 204.074C219.86 217.522 219.258 231.005 218.482 244.441C217.949 253.557 219.803 261.932 224.135 269.855C234.027 287.948 245.008 305.264 259.301 320.299C262.394 323.543 265.104 327.145 268 330.585C267.409 331.153 266.819 331.732 266.228 332.3H266.205Z" fill="#333333"/>
<path d="M70.0659 323.218C73.0428 322.871 74.4327 322.454 75.7532 322.593C92.9427 324.412 107.109 317.323 119.132 306.307C146.77 280.975 166.322 250.453 176.921 214.163C181.033 200.078 182.666 185.958 182.828 171.467C182.863 168.513 181.936 164.946 185.736 163.093C189.917 165.328 189.28 169.417 189.384 172.857C190.021 194.205 186.245 214.742 177.905 234.457C169.438 254.484 157.334 272.38 143.99 289.222C135.244 300.249 124.495 309.956 113.526 318.886C102.395 327.933 89.1666 331.222 74.9193 325.94C73.6915 325.489 72.5911 324.655 70.0775 323.23L70.0659 323.218Z" fill="#333333"/>
<path d="M24 330.516C36.7647 327.597 47.2938 321.157 56.2128 312.087C61.0083 307.211 65.4562 301.94 69.6146 296.508C81.0935 281.554 92.4219 266.484 103.669 251.345C116.584 233.947 124.426 214.128 129.152 193.244C132.048 180.421 132.917 167.135 134.735 154.069C135.013 152.089 135.488 150.119 135.998 147.49C141.175 150.525 140.62 154.892 140.585 158.401C140.515 165.965 140.643 173.772 138.836 181.023C134.886 196.904 130.924 212.958 124.785 228.063C120.245 239.229 112.889 249.445 105.661 259.256C93.4643 275.797 80.5723 291.84 67.5412 307.732C62.6068 313.755 56.7688 319.141 50.7803 324.145C43.1122 330.551 33.7878 331.825 24.0116 330.516H24Z" fill="#333333"/>
<path d="M145.809 54.1181C151.67 58.427 152.724 64.4966 155.701 69.2921C158.794 74.2728 161.388 79.6243 164.956 84.2228C168.524 88.8329 172.891 92.8523 177.153 96.8716C181.3 100.798 185.759 104.389 191.354 109.242C168.663 103.15 145.508 74.9447 145.809 54.1297V54.1181Z" fill="#333333"/>
<path d="M142.229 31.6816C147.558 32.3419 151.415 34.6585 153.477 39.4887C157.971 50.0062 162.488 60.5238 166.994 71.0413C168.593 74.7711 170.18 78.5008 171.778 82.219L170.33 83.0415C167.261 78.2808 163.774 73.7402 161.237 68.7131C158.075 62.4234 155.365 55.8441 153.083 49.1838C150.789 42.5003 149.179 35.6083 142.218 31.67L142.229 31.6816Z" fill="#333333"/>
</g>
</svg>
