<svg width="387" height="254" viewBox="0 0 387 254" fill="none" xmlns="http://www.w3.org/2000/svg">
<path d="M309.508 126.682C309.845 127.079 310.634 126.851 310.445 125.77L309.111 125.021L309.503 126.682H309.508Z" fill="#D8F4FF"/>
<path d="M311.696 119.311C310.962 118.055 309.736 116.691 308.595 117.604C309.95 118.76 309.449 119.092 311.051 120.367C311.249 121.449 310.684 122.287 310.198 122.118C310.545 122.491 309.95 123.805 310.788 124.371C311.279 123.656 311.522 122.838 311.532 121.975C311.537 121.543 311.482 121.096 311.373 120.645C311.254 120.194 311.056 119.742 310.813 119.286C311.071 118.864 311.443 119.236 311.691 119.311H311.696Z" fill="#D8F4FF"/>
<path d="M262.587 27.0669L263.069 27.6027C262.964 27.4241 262.796 27.2455 262.587 27.0669Z" fill="#D8F4FF"/>
<path d="M199.861 3.97867C200.377 3.98859 200.605 3.87449 200.64 3.75543C200.154 3.80504 199.757 3.85465 199.861 3.97867Z" fill="#D8F4FF"/>
<path d="M188.243 2.31677C188.496 2.3515 188.709 2.36638 188.937 2.38623C188.669 2.27213 188.406 2.21259 188.243 2.31677Z" fill="#D8F4FF"/>
<path d="M262.587 27.0668L261.352 25.6827C261.005 25.9606 261.928 26.4815 262.587 27.0668Z" fill="#D8F4FF"/>
<path d="M306.779 105.236C306.903 105.579 307.077 105.857 307.285 106.1C307.176 105.817 307.082 105.544 306.993 105.256C306.918 105.256 306.859 105.251 306.779 105.236Z" fill="#D8F4FF"/>
<path d="M285.309 46.3947L285.671 46.8114C285.889 46.8362 286.127 46.8362 286.38 46.8114L285.309 46.3897V46.3947Z" fill="#D8F4FF"/>
<path d="M298.777 65.0627C298.559 64.5864 297.507 64.9883 296.986 65.0627C297.527 65.0825 297.909 65.3058 298.212 65.658C298.4 65.5588 298.584 65.3752 298.777 65.0627Z" fill="#D8F4FF"/>
<path d="M310.188 99.4321L310.48 100.022C310.396 99.8686 310.287 99.6057 310.188 99.4321Z" fill="#D8F4FF"/>
<path d="M273.938 34.4488C274.017 34.2999 274.052 34.1362 274.042 34.0122C273.948 34.1164 273.923 34.2702 273.938 34.4488Z" fill="#D8F4FF"/>
<path d="M304.22 151.433C304.294 151.467 304.349 151.452 304.413 151.472C304.334 151.328 304.264 151.274 304.22 151.433Z" fill="#D8F4FF"/>
<path d="M312.435 126.682L312.485 127.045C312.693 127.084 312.901 127.124 313.11 127.124L312.435 126.682Z" fill="#D8F4FF"/>
<path d="M166.653 3.30398C166.697 3.30894 166.712 3.30398 166.752 3.30398C167.288 3.08074 166.975 3.15515 166.653 3.30398Z" fill="#D8F4FF"/>
<path d="M69.4878 153.139C69.964 150.763 71.5515 156.389 71.8839 152.896C71.5317 153.303 69.4977 150.287 69.4878 153.139Z" fill="#D8F4FF"/>
<path d="M306.824 104.651C306.759 104.363 306.7 104.071 306.655 103.768C306.69 104.175 306.745 104.448 306.824 104.651Z" fill="#D8F4FF"/>
<path d="M71.8792 152.896H71.8891L71.9139 152.539C71.899 152.688 71.894 152.772 71.8792 152.896Z" fill="#D8F4FF"/>
<path d="M121.23 23.1924C121.424 23.2966 121.672 23.3065 121.92 23.3015C121.841 23.2172 121.672 23.1676 121.23 23.1924Z" fill="#D8F4FF"/>
<path d="M154.96 8.61713L154.057 8.76596C154.429 8.74611 154.717 8.68658 154.96 8.61713Z" fill="#D8F4FF"/>
<path d="M107.31 36.3786C106.893 36.6564 106.67 36.6613 106.283 37.2318C106.368 37.2318 106.442 37.217 106.526 37.1872C106.596 36.9094 106.784 36.6316 107.31 36.3736V36.3786Z" fill="#D8F4FF"/>
<path d="M94.0049 50.9835C94.1388 50.9538 94.2728 50.8843 94.4067 50.8347C94.5109 50.671 94.6349 50.4775 94.749 50.3039L94.0049 50.9835Z" fill="#D8F4FF"/>
<path d="M280.005 201.474C280.511 201.369 280.943 201.399 281.335 201.474C280.541 201.181 282.104 198.944 280.005 201.474Z" fill="#D8F4FF"/>
<path d="M307.395 105.112C307.097 105.053 306.933 104.924 306.824 104.651C306.874 104.859 306.933 105.058 306.993 105.256C307.167 105.281 307.32 105.261 307.395 105.112Z" fill="#D8F4FF"/>
<path d="M112.782 43.3189L110.55 45.214C111.219 44.7278 112.028 44.0382 112.782 43.3189Z" fill="#D8F4FF"/>
<path d="M159.673 238.056L160.357 238.11C160.114 238.016 159.876 237.981 159.673 238.056Z" fill="#D8F4FF"/>
<path d="M104.785 51.6979C104.145 51.8368 103.609 52.1047 103.118 52.447C103.108 52.5959 103.069 52.7447 103.118 52.8886L104.79 51.6979H104.785Z" fill="#D8F4FF"/>
<path d="M290.274 184.145C288.87 186.526 290.855 186.01 291.281 186.963C289.823 190.019 289.525 187.702 288.285 188.253C287.893 189.225 287.759 190.237 287.61 191.17C287.437 192.083 287.233 192.911 286.762 193.536C286.499 193.491 286.251 193.69 286.206 193.224C286.127 193.839 285.849 194.489 285.472 195.158C285.284 195.491 285.075 195.833 284.852 196.18C284.609 196.513 284.361 196.85 284.113 197.192C283.101 198.552 282.119 199.985 281.851 201.454C281.623 201.518 281.464 201.513 281.35 201.479C282.188 201.632 282.808 202.054 283.16 202.461C282.337 203.448 282.292 204.877 281.25 204.614C281.791 204.033 281.538 203.731 281.553 203.26L280.988 204.549C279.162 204.559 281.831 202.853 281.052 202.193C280.372 203.319 279.747 204.644 279.087 205.854C278.388 207.03 277.639 208.072 276.81 208.667C275.555 208.032 279.703 204.976 276.994 206.082L278.239 205.145L279.44 204.152C276.319 204.51 280.764 202.848 277.659 202.962C277.297 203.304 276.989 203.622 276.721 203.919C276.438 204.202 276.195 204.47 275.982 204.723C275.55 205.234 275.228 205.695 274.91 206.157C274.588 206.618 274.265 207.079 273.834 207.59C273.412 208.111 272.842 208.642 272.053 209.257C271.924 210.418 273.045 209.843 272.906 211.009C272.097 212.244 271.338 212.909 270.634 213.266C269.92 213.608 269.245 213.633 268.635 213.643C267.399 213.663 266.378 213.578 265.38 215.632C265.127 217.006 265.837 218.594 262.91 219.75L262.781 217.914C261.213 219.05 261.109 219.839 260.891 220.519C260.677 221.208 260.37 221.828 258.4 222.602C258.653 221.689 260.608 220.414 260.023 220.608C257.175 221.159 259.001 222.394 257.329 223.584L256.222 222.701C255.384 223.302 254.546 223.957 253.702 224.646C252.854 225.331 252.026 226.08 251.118 226.745C249.327 228.104 247.506 229.582 245.477 230.698C245.522 230.222 246.023 229.493 244.877 229.617C244.272 230.019 243.647 230.411 243.002 230.788C242.679 230.976 242.352 231.16 242.024 231.338C241.682 231.497 241.34 231.656 240.997 231.82C239.618 232.445 238.189 233.025 236.751 233.541C235.282 233.997 233.809 234.404 232.365 234.781C232.003 234.876 231.646 234.97 231.289 235.054C230.927 235.124 230.565 235.198 230.207 235.267C229.493 235.401 228.793 235.535 228.104 235.664L226.452 237.455C225.976 237.604 225.415 237.207 225.867 236.855C223.659 237.019 225.976 237.589 225.103 238.313C223.927 238.73 223.341 238.115 223.996 237.569C223.148 238.065 222.101 238.631 220.935 239.197C219.76 239.717 218.46 240.204 217.135 240.645C216.471 240.858 215.806 241.072 215.141 241.235C214.471 241.379 213.806 241.498 213.162 241.588C211.867 241.766 210.651 241.816 209.605 241.687L210.329 241.206C209.932 241.216 209.59 241.275 209.277 241.355C208.965 241.424 208.692 241.528 208.444 241.652C207.948 241.9 207.551 242.233 207.154 242.545C206.365 243.17 205.571 243.716 204.048 243.364L204.589 243.086C201.136 243.175 197.535 243.602 194.107 243.617C193.253 243.632 192.41 243.647 191.586 243.627C190.763 243.572 189.959 243.503 189.18 243.403C188.402 243.304 187.652 243.18 186.938 243.026C186.224 242.873 185.539 242.679 184.904 242.396C184.363 243.195 182.672 242.878 181.059 242.654C180.658 242.6 180.256 242.545 179.879 242.52C179.502 242.481 179.149 242.456 178.832 242.481C178.202 242.53 177.726 242.759 177.547 243.324C175.657 242.501 175.027 242.019 174.188 241.568C173.355 241.087 172.328 240.581 169.714 239.727C168.3 239.39 167.293 240.72 165.452 240.556L165.685 239.355L162.982 240.05C162.669 239.489 162.371 238.889 162.079 238.299L160.367 238.14C160.997 238.393 161.608 239.063 161.419 239.375C160.06 239.276 158.547 238.626 157.401 237.927C156.265 237.192 155.515 236.379 155.58 236.076L152.45 235.565C151.398 235.396 150.381 235.134 149.334 234.92C149.642 234.513 150.684 234.742 151.562 234.752C148.01 234.692 151.467 233.328 148.213 233.273C148.491 233.68 147.732 233.868 147.573 234.067C147.29 233.749 146.864 233.462 146.377 233.119C145.886 232.787 145.311 232.46 144.696 232.152C144.081 231.844 143.416 231.552 142.756 231.284C142.091 231.031 141.431 230.783 140.831 230.55L141.64 230.014C140.638 229.438 139.586 228.898 138.494 228.372C137.949 228.114 137.398 227.851 136.838 227.583C136.292 227.3 135.736 227.017 135.181 226.73C134.069 226.154 132.918 225.599 131.792 224.978C130.686 224.329 129.575 223.659 128.483 222.954C129.838 224.289 128.697 225.296 127.313 224.572L127.506 223.163C126.221 223.292 128.597 224.438 126.325 224.145C124.782 222.895 126.077 222.176 127.218 222.473L125.031 221.471C125.14 221.074 125.71 221.233 126.107 220.911C125.482 220.96 124.837 220.102 124.118 219.283C123.383 218.48 122.624 217.641 121.652 217.76L121.781 217.373C120.769 216.575 119.876 215.905 119.053 215.31C118.249 214.694 117.525 214.139 116.825 213.603C116.121 213.067 115.441 212.551 114.727 212.011C114.022 211.455 113.333 210.815 112.549 210.106C111.72 210.86 110.688 209.535 109.126 209.292C108.163 208.022 107.241 206.608 106.229 205.184C105.971 204.832 105.723 204.465 105.475 204.093C105.226 203.721 104.968 203.354 104.701 202.987C104.165 202.252 103.589 201.533 102.954 200.839C102.409 200.432 102.071 200.218 101.848 200.124C101.62 200.035 101.491 200.07 101.392 200.144C101.188 200.293 101.094 200.595 100.464 200.328C101.129 199.529 98.7276 196.627 100.514 197.713C99.7942 196.845 99.1642 196.16 98.6532 195.491C98.1323 194.826 97.6561 194.236 97.1401 193.625C96.6242 193.015 96.0686 192.385 95.3889 191.641C94.7489 190.872 93.9949 189.984 93.0424 188.883C93.0275 189.632 93.2557 190.326 92.7695 190.207C92.0601 189.409 91.8369 187.965 92.333 187.836L92.5711 188.015C90.2295 185.653 88.9893 182.007 88.0219 178.539C87.4762 176.828 87.0942 175.106 86.5187 173.618C86.236 172.869 85.9135 172.174 85.5365 171.544C85.1942 170.899 84.7923 170.324 84.3111 169.828L84.5145 170.056L83.0263 167.789C82.7782 167.407 82.5252 167.03 82.2821 166.648L81.5975 165.477C80.9774 163.096 82.7881 166.613 82.803 164.693C81.9448 163.483 81.3495 162.332 80.893 161.225C80.4962 160.104 80.2432 159.028 80.015 157.986C79.9009 157.465 79.7868 156.949 79.6776 156.438L79.4941 155.669C79.4444 155.411 79.3899 155.153 79.3254 154.895C79.0823 153.859 78.7499 152.822 78.2092 151.73C78.4721 151.204 78.6209 150.619 78.6805 149.984C78.7698 149.344 78.7797 148.654 78.7251 147.925C78.6705 147.196 78.5565 146.432 78.4076 145.643C78.2538 144.854 78.0653 144.046 77.9314 143.212C77.6337 141.555 77.2716 139.859 77.1029 138.256C76.9987 136.649 77.0434 135.141 77.4254 133.896L76.7407 134.223C75.9569 133.003 77.0136 132.67 77.1624 131.738C76.6167 131.891 76.5622 133.142 76.1603 132.373C76.0214 131.033 75.9222 129.674 75.8577 128.31C75.8379 127.625 75.7783 126.94 75.8081 126.251C75.8279 125.561 75.8577 124.872 75.8924 124.182C75.9321 123.493 75.9718 122.798 76.0165 122.109C76.0661 121.414 76.1008 120.724 76.2099 120.03C76.3984 118.646 76.6018 117.267 76.8152 115.887L76.9789 114.856L77.2021 113.829L77.6486 111.78C77.9512 110.416 78.229 109.056 78.6309 107.717C78.993 106.377 79.3502 105.043 79.7123 103.708C80.1241 102.394 80.5359 101.084 80.9129 99.7793C81.4288 97.8644 80.7492 97.1004 80.2332 96.2323C79.7223 95.3691 79.4395 94.3967 80.9427 92.1841L81.8059 93.9502C81.8505 93.4393 81.9001 92.9233 81.9745 92.4173C82.0688 91.9162 82.168 91.4102 82.2821 90.9092C82.5054 89.9071 82.7683 88.9099 83.056 87.9177C83.319 86.9206 83.7208 85.9631 84.0829 84.9957L85.2339 82.1184C86.0772 80.2332 86.9652 78.3729 87.759 76.4927C88.2005 75.57 88.6172 74.6472 88.9992 73.7046C89.1927 73.2334 89.3763 72.7621 89.5499 72.2858C89.7186 71.8096 89.8872 71.3284 90.0708 70.862C90.1005 71.4226 90.423 71.6111 90.0708 72.3057C90.4627 72.0378 90.8645 71.5814 91.2267 71.0307C91.5888 70.48 91.9063 69.8302 92.1494 69.1952C92.6405 67.9301 92.844 66.7196 92.5265 66.5113C93.2756 65.5092 93.2805 66.6353 94.0296 66.2037C94.7192 65.6481 95.0317 64.6013 95.3343 63.6538C95.632 62.7062 95.9247 61.8629 96.5895 61.7736C96.8077 61.7389 96.5646 62.3292 96.4605 62.6269C96.7036 61.471 99.5065 58.544 98.0033 58.7524C99.055 57.6709 99.8637 56.4902 100.618 55.3591C100.995 54.7935 101.362 54.2429 101.764 53.7418C101.962 53.4938 102.171 53.2557 102.389 53.0324C102.617 52.8191 102.86 52.6256 103.118 52.452C103.158 51.4697 104.115 50.5916 104.929 49.778C105.341 49.3712 105.708 48.9744 105.926 48.5973C106.154 48.2253 106.219 47.8532 105.985 47.4662C107.176 48.8404 110.604 44.6385 111.462 42.7782C111.378 43.6066 113.04 42.0489 113.02 43.1105C114.523 41.5826 115.828 40.0893 114.93 39.6329C117.148 39.1418 118.333 37.4848 119.544 36.1355C120.134 35.4459 120.695 34.801 121.325 34.3793C121.637 34.166 121.97 34.0122 122.327 33.9378C122.689 33.8683 123.086 33.8882 123.517 34.0023C124.673 32.886 125.829 31.7946 126.975 30.7231C128.166 29.716 129.351 28.7387 130.537 27.7812C130.835 27.5431 131.128 27.3 131.425 27.0718C131.733 26.8535 132.035 26.6303 132.338 26.412C132.948 25.9755 133.558 25.5439 134.164 25.1123C134.774 24.6856 135.384 24.2639 135.989 23.8423C136.619 23.4553 137.244 23.0733 137.864 22.6913C138.023 23.113 137.75 23.5148 137.274 23.9068C137.036 24.1002 136.743 24.2937 136.426 24.4872C136.113 24.6856 135.786 24.894 135.458 25.1023C134.149 25.9209 132.894 26.7196 133.479 27.4637C134.565 26.6254 135.508 25.8167 136.391 25.0279C137.289 24.2739 138.142 23.5744 139.01 22.8898C139.442 22.5475 139.884 22.2151 140.335 21.8926C140.563 21.7339 140.796 21.5751 141.03 21.4114C141.268 21.2626 141.516 21.1237 141.769 20.9798C142.781 20.4192 143.897 19.8983 145.187 19.432C146.576 19.0748 144.76 20.4787 144.458 20.95C145.043 20.5829 145.633 20.2406 146.229 19.9182C146.824 19.5957 147.444 19.3477 148.054 19.0798C149.275 18.5589 150.5 18.0925 151.701 17.6262C152.921 17.2095 154.121 16.8077 155.292 16.3463C155.878 16.1131 156.448 15.87 157.014 15.6021C157.584 15.3591 158.155 15.106 158.705 14.8233C158.74 14.987 158.284 15.3045 157.842 15.5724C158.755 15.2549 160.065 15.2152 159.742 14.4611L158.899 14.9275C157.991 14.5703 158.735 13.717 159.732 12.8687C160.729 12.0204 161.975 11.1571 161.985 10.8496C160.943 13.4838 166.916 10.3138 165.031 13.7716C165.611 13.4789 166.301 12.9232 166.043 12.4271C167 12.3676 167.352 12.6107 166.559 13.4293C167.372 13.1266 167.898 12.8637 168.28 12.6305C168.667 12.4172 168.9 12.2237 169.128 12.0452C169.585 11.688 170.021 11.4002 171.574 11.1274C171.629 11.5193 171.033 11.7773 170.795 12.2932C172.214 11.2663 173.682 10.1699 176.386 10.2046C176.257 10.4626 176.604 10.7255 175.816 10.8198C176.942 10.6462 177.974 10.3733 178.971 10.0558C179.219 9.97644 179.467 9.89707 179.715 9.81273C179.963 9.74328 180.206 9.66886 180.454 9.59941C180.945 9.45554 181.436 9.31664 181.928 9.17277C182.915 8.89496 183.927 8.64195 185.013 8.4832C185.554 8.38894 186.115 8.37406 186.7 8.37406C187.285 8.37406 187.891 8.41375 188.526 8.48816C187.087 10.2344 190.257 9.00906 190.535 10.4825C190.981 10.4031 191.428 10.3039 191.874 10.2344L193.219 10.0459L192.142 9.29679C193.323 9.34144 194.444 9.10332 195.53 8.92472C196.612 8.75605 197.664 8.59234 198.671 8.9396L197.773 9.17773L196.88 9.4605C197.624 9.41585 198.363 9.4357 199.102 9.44562L201.33 9.47539L198.854 8.72133C201.315 8.1409 198.715 6.83121 201.885 7.48605C201.221 7.59519 204.301 7.65472 205.437 8.73125H205.427C206.653 8.41375 207.943 8.0764 209.659 8.66179C210.046 9.18765 209.049 10.2344 209.297 10.5866C209.962 10.0459 211.346 10.2295 212.775 10.3783C214.203 10.542 215.677 10.666 216.535 10.2146C215.989 10.408 215.806 11.1621 215.93 11.3556L217.091 10.5916C218.103 11.1571 218.222 11.3457 217.909 11.9062C221.094 12.829 217.309 9.83753 220.975 11.5143C220.653 11.5243 220.762 11.7028 220.092 11.7078C220.563 11.8765 221.035 11.9955 221.501 12.1444C221.967 12.2882 222.434 12.4172 222.9 12.5313C223.833 12.7645 224.765 12.948 225.688 13.1316C226.149 13.2259 226.611 13.3102 227.067 13.4193C227.519 13.5384 227.965 13.6674 228.402 13.8013C229.285 14.0742 230.143 14.3966 230.966 14.8034C231.487 16.5546 227.841 14.1337 228.6 15.7162C229.845 16.0784 231.155 16.3314 232.465 16.639C233.774 16.9565 235.094 17.274 236.413 17.5915C237.743 17.8842 239.018 18.3307 240.268 18.7771C240.893 19.0053 241.503 19.2484 242.099 19.5064C242.396 19.6354 242.689 19.7693 242.982 19.9132C243.269 20.062 243.542 20.2257 243.815 20.3894L243.041 19.809C243.815 19.0153 244.554 19.6949 245.428 20.5879C246.301 21.4957 247.313 22.5772 248.672 22.7757C248.052 22.5921 247.397 23.4007 247.655 23.2718C249.074 24.2739 250.661 25.0478 252.522 25.8217C253.439 26.2384 254.407 26.675 255.449 27.1462C255.974 27.3844 256.515 27.6324 257.076 27.8854C257.359 28.0144 257.641 28.1484 257.934 28.2823C258.222 28.4262 258.505 28.5849 258.797 28.7387L257.959 28.8082C258.658 29.6019 259.715 30.4403 260.801 31.2638C261.342 31.6805 261.908 32.0725 262.409 32.4941C262.91 32.9158 263.376 33.3276 263.773 33.7195C264.616 33.6947 265.564 34.5529 265.445 33.4566C265.876 34.29 266.382 35.0093 266.918 35.6642C267.439 36.3438 268.01 36.9391 268.615 37.4848C269.825 38.5762 271.2 39.4345 272.484 40.3771C273.139 40.8335 273.789 41.2899 274.424 41.7562C275.054 42.2275 275.684 42.6988 276.215 43.2594C277.306 44.3557 278.234 45.596 278.805 47.119C278.299 46.5981 277.272 46.1962 277.664 46.613L278.641 47.4563C278.963 47.7391 279.266 48.0467 279.579 48.3394L281.449 50.1203C281.876 49.2175 281.429 49.2472 281.25 47.9524C282.089 48.0913 283.379 48.9347 284.232 49.9169C283.225 49.2175 282.952 49.4655 282.957 50.0162C282.962 50.5668 283.25 51.4152 283.349 51.9807C283.463 51.6682 283.914 51.7475 284.083 51.4995C284.485 54.6497 285.805 50.7057 287.248 54.3223L286.742 54.4562C287.005 54.6943 287.288 54.9076 287.566 55.121C287.839 55.3442 288.106 55.5625 288.379 55.7857C288.915 56.2421 289.421 56.7382 289.803 57.3931C289.297 58.5143 288.538 56.4703 287.779 56.9069C289.024 58.5688 291.877 59.1244 291.996 61.3519C291.267 60.7566 290.577 59.6701 289.798 59.1244C289.838 59.7247 289.902 60.1663 289.967 60.5284C290.026 60.8955 290.101 61.1684 290.195 61.4114C290.384 61.8927 290.646 62.2498 290.974 62.9444L290.914 62.8005C291.386 63.8969 291.882 64.9684 292.318 66.0698C292.274 65.7523 292.204 65.4397 292.14 65.1321C294.015 65.5092 294.764 66.6403 295.503 67.8904C295.865 68.5205 296.227 69.1852 296.694 69.8401C297.13 70.5098 297.686 71.1597 298.5 71.7451C295.404 69.463 297.364 71.7004 296.173 72.0179C296.287 72.9704 296.57 74.3446 296.094 74.1511C296.897 74.6671 297.056 75.3616 297.264 76.1107C297.463 76.8747 297.736 77.6784 298.862 78.4473C298.554 78.7003 299.556 80.0695 298.51 80.1241C299.67 81.9448 298.921 79.3998 299.437 79.3601C300.767 80.5904 301.064 82.5996 301.541 84.6931C301.655 85.219 301.779 85.7498 301.928 86.2856C302.052 86.8263 302.191 87.372 302.374 87.9128C302.741 88.9893 303.262 90.046 304.081 91.0382C304.339 91.4995 304.572 91.9113 304.78 92.2883C304.998 92.6653 305.217 93.0027 305.425 93.3103C305.847 93.9304 306.259 94.4463 306.66 94.9523C307.067 95.4633 307.464 95.9644 307.871 96.5696C308.253 97.1798 308.62 97.8892 309.002 98.807C308.848 99.5214 308.446 99.3378 308.079 98.9806C307.712 98.6234 307.39 98.0926 307.39 98.0926C307.35 99.184 307.444 100.107 307.658 100.985C307.866 101.863 308.223 102.696 308.595 103.634C308.193 103.302 307.985 103.768 307.662 104.438C308.039 105.971 309.235 105.226 309.042 107.389C308.55 107.107 307.791 106.769 307.231 106.1C307.568 106.978 308 107.841 308.426 108.714C308.808 109.597 309.195 110.495 309.488 111.433C308.883 112.023 308.327 110.411 307.806 109.805C308.372 111.894 309.141 115.257 310.198 115.843L310.47 114.409C310.58 115.198 309.602 114.905 309.339 114.35C308.273 112.603 309.369 111.656 309.741 111.492L310.163 112.832C311.2 111.998 310.932 110.604 310.381 109.101C310.123 108.347 309.706 107.578 309.379 106.819C309.047 106.06 308.774 105.321 308.684 104.631L310.515 105.484L308.665 102.91C308.828 102.567 309.091 102.25 309.399 102.175C309.706 102.106 310.054 102.28 310.292 102.944C310.411 102.404 310.396 102.032 310.322 101.754C310.252 101.471 310.138 101.278 310.024 101.089C309.801 100.712 309.597 100.375 309.84 99.4271C309.935 99.2088 310.034 99.2733 310.138 99.4321L309.215 97.6114C309.642 97.9091 310.272 97.0111 310.317 98.2613C310.341 97.3336 310.217 96.5299 309.974 95.8354C309.726 95.1458 309.404 94.5555 309.116 94.0296C308.536 92.9829 308.069 92.204 308.486 91.3755L308.665 91.6335C308.426 91.058 308.238 90.6214 308.054 90.299C307.871 89.9815 307.717 89.7682 307.583 89.6342C307.32 89.3663 307.147 89.401 306.953 89.4804C306.576 89.6441 306.134 89.9666 304.874 88.4634C305.554 87.3671 306.234 86.2558 306.898 85.1247L305.604 85.0751C305.47 84.584 305.177 83.6166 305.698 83.6166C304.225 82.1432 305.321 84.1028 304.19 83.3586C304.249 82.0291 303.535 80.4862 302.94 79.1666C302.32 77.8569 301.893 76.7209 302.652 76.066C301.451 75.6493 302.969 78.4919 301.312 76.3786C302.101 75.6047 301.709 74.9498 301.109 74.1859C300.484 73.4368 299.631 72.6083 299.551 71.3928C300.816 71.5169 301.293 73.6848 301.114 71.2391C299.993 71.0406 299.586 70.0286 299.303 68.8529C299.011 67.687 298.768 66.3972 298.152 65.6481C297.502 65.9656 296.858 65.147 296.128 63.9316C295.379 62.7261 294.447 61.1733 293.4 59.9628C293.965 59.8388 290.711 54.5405 289.262 51.8716L289.51 51.7922C288.751 52.0055 287.958 51.4697 287.149 50.6909C286.747 50.2989 286.335 49.8425 285.929 49.3911C285.522 48.9347 285.075 48.513 284.664 48.1409C285.383 47.6448 285.924 47.7193 287.005 48.4088C286.559 47.8631 286.082 47.3373 285.621 46.8015C284.936 46.7271 284.321 46.3897 283.304 45.472L284.47 45.1544C283.994 44.6335 283.468 44.1523 282.907 43.686C282.327 43.2445 281.732 42.793 281.117 42.3267C280.511 41.8554 279.911 41.3494 279.336 40.764C279.048 40.4713 278.77 40.1637 278.497 39.8264C278.214 39.5039 277.937 39.1567 277.674 38.7796C276.83 39.3799 277.723 42.7385 274.553 40.6499C274.836 40.1588 275.382 39.3849 276.255 39.9058C275.972 39.7321 275.104 39.4394 274.796 38.8243L276.528 39.1964C275.625 37.7775 275.377 39.1666 274.494 38.2091C275.049 37.6535 274.176 37.1326 274.737 36.8052C275.029 36.9788 275.342 37.8321 275.917 37.9512C275.431 37.3906 274.945 36.7159 274.573 36.0759C274.206 35.4261 273.913 34.8605 273.888 34.4388C273.69 34.8555 273.184 35.2227 272.301 34.5926C270.148 32.8017 272.192 33.2532 271.209 31.8691C270.361 31.8194 269.3 30.2716 268.526 31.1596C267.886 30.6487 268.104 30.1278 268.049 29.6813C267.31 29.4432 265.971 28.3914 264.83 27.7267C263.684 27.0669 262.806 26.7146 263.103 27.6919L263.356 27.9747C263.287 27.9549 263.217 27.9102 263.133 27.8805C261.997 27.429 260.96 26.8238 259.973 26.1193C258.976 25.4298 257.989 24.7104 257.026 23.9365C255.126 22.3639 253.137 20.8905 250.979 19.933L251.177 19.5957C249.863 19.0599 248.419 18.4547 247.075 17.8792C245.72 17.3236 244.45 16.8225 243.349 16.8176C242.6 16.4802 241.871 15.364 242.386 15.0862C241.345 14.7786 240.725 14.6993 240.05 14.4661C239.375 14.218 238.621 13.8708 237.297 13.0026C239.569 13.1663 236.83 12.1642 239.554 13.3548C237.078 12.0203 236.696 11.1671 233.506 11.1026C234.831 10.4924 231.919 9.22734 230.545 9.08347L232.187 10.3981C230.718 10.0558 229.503 9.5498 228.263 9.04379L229.344 8.01688C228.719 7.58031 228.064 7.3025 227.409 7.06934C226.755 6.84113 226.09 6.68238 225.435 6.56828C224.115 6.34999 222.83 6.2607 221.57 6.28055C220.315 6.27063 219.12 6.24086 218.008 5.98785C217.453 5.86382 216.917 5.67035 216.396 5.4223C215.875 5.18418 215.374 4.86668 214.888 4.43508C213.211 5.07504 217.855 5.6257 216.297 6.44425C213.757 5.80925 211.336 3.44289 210.498 3.30894C208.726 2.71363 207.809 3.0857 206.881 3.48257C206.415 3.68101 205.948 3.88937 205.368 3.98363C205.075 4.03324 204.758 4.05308 204.396 4.02828C204.033 4.0134 203.622 3.97371 203.155 3.87449C203.602 4.38051 203.914 5.66539 201.102 5.89359C198.527 5.52152 198.006 3.67606 199.698 3.42801C200.338 3.43793 200.63 3.6066 200.591 3.76535C201.454 3.66117 202.6 3.5421 201.588 2.95671L201.206 3.39824C200.566 3.1105 199.33 2.90711 198.363 2.68883C197.396 2.49039 196.701 2.3118 197.148 1.9298C195.104 2.32668 196.26 2.67891 197.733 2.96168C196.041 2.57473 194.702 2.54 193.353 2.52512C192.678 2.52512 192.003 2.50031 191.274 2.51023C190.545 2.51023 189.766 2.49039 188.883 2.39613C189.448 2.63922 189.969 3.17996 189.419 3.18988C186.839 2.96168 186.278 3.1998 185.936 3.53218C185.762 3.6959 185.648 3.88441 185.356 4.05308C185.068 4.23168 184.606 4.40035 183.748 4.51445C181.739 3.9489 184.339 2.74836 180.886 3.61652C178.703 3.29406 180.315 2.40605 181.149 1.95957C180.36 2.2473 179.591 2.38125 178.847 2.4259C178.103 2.50527 177.388 2.48543 176.709 2.4259C175.349 2.3118 174.129 2.04887 173.196 2.08359L174.848 1.48828C173.856 1.85043 173.023 1.92981 172.174 2.06375C172.541 2.3118 172.913 2.58961 173.281 2.8575C172.77 2.83269 172.308 2.86742 171.966 2.8575C171.624 2.84758 171.405 2.78309 171.381 2.58961C170.468 3.3784 172.398 3.99851 170.547 5.18418C169.858 5.06512 168.895 5.36773 168.017 5.55625C167.58 5.65051 167.164 5.715 166.816 5.6902C166.469 5.67531 166.186 5.56617 166.013 5.2834C166.529 5.21394 166.911 5.15938 167.184 5.10977C167.456 5.0552 167.62 4.99566 167.714 4.92621C167.898 4.79226 167.789 4.62855 167.655 4.45492C167.387 4.10269 167.02 3.69094 168.756 3.27918C168.106 3.54707 167.283 3.68101 166.261 3.71078C166.087 3.6066 166.345 3.42305 166.603 3.30894C162.421 3.09562 165.085 5.09984 161.052 5.99281C161.221 5.59098 160.908 5.32308 160.466 5.18914C160.03 5.06015 159.474 5.1048 159.167 5.26851C160.794 4.82203 160.228 6.18629 158.909 7.12391C156.21 7.31738 156.26 8.29965 154.915 8.61715L156.503 8.43359C156.349 8.84535 155.947 9.1182 155.377 9.37617C154.806 9.64406 154.082 9.94172 153.253 10.3336C152.931 9.86234 154.707 9.44562 154.017 9.42081C153.243 10.3336 152.068 10.3932 150.758 10.4477C150.108 10.4825 149.414 10.4775 148.754 10.6363C148.094 10.79 147.444 11.043 146.859 11.4994C145.455 11.5391 146.258 10.3138 145.048 10.4428C143.718 11.4548 142.815 11.5491 141.903 11.6929C140.985 11.8219 140.027 11.9459 138.633 12.9877C139.928 13.4392 139.968 13.1663 138.207 14.9771L142.974 12.0898L140.305 14.8084C141.064 14.471 141.798 13.9799 142.468 13.5334C143.138 13.082 143.743 12.6901 144.239 12.5909C143.599 13.2457 143.321 13.5434 143.312 13.6922C143.302 13.846 143.579 13.8708 144.09 14.0742C142.786 13.8857 141.843 14.5405 140.896 15.2549C139.953 15.9891 138.981 16.7233 137.621 16.9118L136.659 14.7737C135.657 14.992 134.789 15.3739 133.98 15.8502C133.578 16.0883 133.191 16.3463 132.804 16.6241C132.616 16.763 132.422 16.9069 132.234 17.0458C132.05 17.1996 131.867 17.3583 131.678 17.5171C130.934 18.1521 130.165 18.8168 129.292 19.4469C128.419 20.0868 127.417 20.6573 126.266 21.2477C126.807 21.0741 127.327 20.8707 127.883 20.7218C127.769 21.8579 125.279 22.5326 124.083 23.7381C123.785 22.9989 122.748 23.3214 121.875 23.3114C122.277 23.7381 118.75 25.4694 119.291 27.0024C118.472 27.171 117.629 27.3149 116.825 27.5282C113.283 29.7855 114.449 32.1568 111.333 34.548C111.676 33.1242 109.944 33.8931 111.571 31.6756C110.554 32.5437 109.552 33.2234 109.895 33.6451C109.443 33.7195 108.903 34.5132 108.337 35.3417C107.786 36.19 107.176 37.0433 106.482 37.1971C106.313 37.8321 106.749 38.5514 105.633 39.5238C105.405 39.5238 105.365 39.246 105.365 39.246C105.499 39.3898 105.167 39.8711 105.013 40.3076C104.859 40.7442 104.869 41.1014 105.618 40.9426C104.492 41.2403 103.441 41.915 102.438 42.7732C101.937 43.2048 101.451 43.6761 100.975 44.1722C100.514 44.6832 100.077 45.2289 99.6404 45.7646C98.7673 46.8412 97.9091 47.9078 97.031 48.8007C96.1926 49.7235 95.3244 50.4577 94.357 50.8347C93.9602 51.44 93.5385 52.0799 93.1118 52.7298C92.6902 53.3797 92.2933 54.0692 91.8815 54.734C91.0679 56.0735 90.2196 57.3385 89.53 58.4498C89.4259 58.1769 89.2125 58.2265 89.5449 57.8544C86.9851 60.5135 90.2147 60.9402 87.3671 63.9514C86.3054 64.5269 86.4245 63.9713 86.6874 63.376C86.9503 62.7807 87.3869 62.1804 86.8263 62.6021C85.5563 62.1556 85.0205 63.3065 84.4451 64.7353C83.8845 66.1789 83.2644 67.8755 81.9944 68.7834L82.168 68.1087C81.2949 68.8529 80.9129 70.1377 80.5359 71.5913C80.1291 73.0349 79.8761 74.7167 79.0674 76.2546C79.0674 76.2546 78.9285 76.0065 78.7202 76.076C78.7747 76.7507 78.7251 77.5246 78.6061 78.3481C78.4771 79.1666 78.363 80.0745 78.1645 80.9774C77.8073 82.798 77.222 84.6435 76.9094 86.2806C76.2893 84.9709 76.8896 84.6782 75.7238 84.9263C75.3815 86.3848 77.4105 85.0751 76.7407 87.9574C75.9222 88.6867 74.7464 90.552 73.655 90.5222C73.8832 89.6094 74.2057 88.7264 74.4736 87.8235C73.5757 88.2898 73.273 89.158 73.154 90.0857C73.0548 91.0183 73.0945 91.9956 72.772 92.6753L72.2313 92.323C71.2043 96.5646 72.8018 97.0161 71.6359 101.476L72.2015 101.109C72.6579 102.488 72.395 102.959 72.0279 103.426C71.6756 103.892 71.2688 104.353 71.6161 105.688L69.9393 106.174C69.9641 106.601 69.9988 107.191 70.0435 107.881C70.1179 108.57 70.1973 109.359 70.2866 110.192C70.3659 111.021 70.4403 111.884 70.49 112.727C70.5346 113.571 70.5545 114.389 70.5842 115.133C70.0435 114.24 69.8004 112.916 69.5871 111.517C69.3886 110.123 69.2299 108.664 69.0563 107.528C68.8082 109.18 68.4461 113.174 69.1059 114.107C69.0364 113.432 68.7636 112.549 69.086 111.919C69.9939 114.082 70.4652 116.761 70.1774 120.01C68.6494 119.633 68.3964 121.771 68.2327 124.301C67.9996 126.831 68.1434 129.724 66.9727 130.974C67.1314 131.708 67.2455 132.442 67.3348 133.171C67.4539 133.901 67.5382 134.635 67.6027 135.374C67.7367 136.847 67.7267 138.346 67.7714 139.874C67.8458 141.402 67.8954 142.964 67.9897 144.577C68.0145 144.978 68.0393 145.385 68.079 145.792C68.1335 146.199 68.1881 146.606 68.2476 147.017C68.3716 147.841 68.5155 148.674 68.6891 149.523C70.5842 146.7 69.1108 151.492 71.4177 150.609C71.6211 151.373 71.7848 151.894 71.8542 152.251C71.9237 152.608 71.9187 152.802 71.8542 152.886C71.7451 154.543 71.6211 156.22 71.5367 157.907C71.3532 158.547 71.115 158.219 70.872 157.758C70.6487 157.291 70.4155 156.696 70.1675 156.835C70.3163 157.708 70.361 158.244 70.3511 158.601C70.3312 158.958 70.237 159.137 70.1129 159.286C69.8699 159.583 69.5275 159.747 69.5424 160.968C70.2469 160.273 71.0754 161.816 71.3135 163.855L71.6111 160.809C72.2561 161.9 72.5289 162.734 72.6182 163.443C72.7125 164.152 72.6579 164.728 72.5785 165.313C72.4347 166.479 72.3007 167.685 73.7047 169.828L72.4793 168.588C73.0647 169.743 73.9577 171.941 74.9895 174.069C75.2475 174.6 75.5204 175.126 75.7982 175.627C76.1008 176.118 76.4183 176.585 76.7407 177.011C77.3857 177.86 78.0604 178.539 78.7598 178.901C78.6904 179.427 78.3382 180.256 77.7131 179.303C78.0008 180.013 78.3084 180.737 78.7003 181.431C79.0972 182.126 79.5238 182.82 79.9654 183.51C80.8633 184.884 81.7811 186.268 82.7881 187.543C83.7704 188.833 84.6832 190.103 85.467 191.324C86.2905 192.519 86.9504 193.69 87.3323 194.846L86.5882 194.781C87.3621 195.64 88.5527 195.843 88.895 197.321C88.652 197.401 88.141 197.282 88.4188 197.733C88.9397 198.115 91.0134 199.588 91.6037 201.012L90.3188 200.362C91.0034 201.702 91.8369 202.729 92.6852 203.607C93.5335 204.485 94.4066 205.209 95.2847 205.879C96.1876 206.529 97.1203 207.104 98.0281 207.749C98.9459 208.384 99.824 209.094 100.737 209.927C100.087 210.512 100.459 211.738 101.178 213.067C101.898 214.397 102.949 215.831 103.723 216.719L103.49 216.838C104.715 218.078 105.916 219.154 107.136 220.097C108.387 221.005 109.627 221.803 110.872 222.563C112.092 223.346 113.407 223.986 114.697 224.696C116.002 225.39 117.286 226.164 118.7 226.918C119.221 227.871 120.144 228.878 121.305 229.925C122.471 230.956 123.939 231.934 125.452 232.976C125.834 233.234 126.216 233.491 126.603 233.749C126.995 234.002 127.402 234.236 127.804 234.484C128.607 234.97 129.411 235.461 130.195 235.957C131.748 236.979 133.3 237.882 134.605 238.854C133.876 238.125 135.369 237.718 136.451 238.07C136.743 238.318 137.15 238.492 137.587 238.636C138.023 238.775 138.494 238.849 138.896 238.958C139.7 239.162 140.236 239.415 139.794 240.094L139.323 239.846C139.695 241.722 142.682 242.694 144.934 243.567L146.08 241.766C147.251 243.041 148.818 244.033 150.599 244.683C151.482 245.026 152.405 245.318 153.333 245.581C153.799 245.71 154.26 245.844 154.727 245.948C155.198 246.043 155.664 246.137 156.126 246.226C157.981 246.573 159.727 246.936 161.201 247.332C162.679 247.714 163.86 248.245 164.554 249.108C165.353 249.009 166.201 249.109 167.065 249.123C167.923 249.148 168.781 249.168 169.56 249.039L169.282 250.13C170.309 250.383 171.212 250.602 172.06 250.81C172.913 251.018 173.727 251.123 174.57 251.262C175.414 251.391 176.297 251.5 177.289 251.609C177.785 251.658 178.311 251.713 178.877 251.763C179.442 251.782 180.047 251.802 180.702 251.822L179.566 252.541C181.044 252.69 182.042 251.956 182.989 251.197C183.465 250.82 183.927 250.433 184.438 250.155C184.949 249.877 185.504 249.699 186.169 249.689L186.908 251.386C188.183 251.41 189.458 251.529 190.743 251.673L191.706 251.782L192.668 251.847C193.308 251.892 193.953 251.926 194.598 251.956C195.883 252.006 197.172 252.035 198.442 251.897C199.712 251.723 200.973 251.435 202.198 250.959C202.138 251.212 202.024 251.703 201.201 251.837C203.607 251.817 210.656 251.936 209.456 249.783C209.525 250.15 209.887 250.304 210.433 250.309C210.979 250.314 211.703 250.116 212.502 249.863C214.094 249.327 215.96 248.523 217.23 247.903L217.036 249.084C219.011 247.179 218.986 246.787 222.012 245.685C222.786 245.646 222.88 246.39 221.823 246.345C222.478 246.35 222.905 246.236 223.227 246.077C223.55 245.924 223.773 245.725 224.006 245.522C224.477 245.115 225.008 244.698 226.561 244.559L225.658 245.552C228.193 244.907 227.905 244.644 229.007 243.394C230.406 242.446 233.749 242.094 234.464 242.887C234.588 242.183 235.615 240.903 237.143 240.61C237.475 240.883 237.044 241.31 236.82 241.518C237.907 241.295 238.8 240.958 239.574 240.576C240.338 240.179 240.978 239.708 241.583 239.286C242.788 238.428 243.85 237.713 245.437 237.55C245.651 237.852 245.909 237.927 246.177 237.912C245.408 238.318 244.639 238.631 243.954 238.934C243.265 239.226 242.654 239.494 242.148 239.712C241.131 240.139 240.541 240.367 240.645 240.278C241.042 241.221 243.711 240.209 242.213 242.431C243.111 241.608 244.272 240.412 245.532 239.34C246.777 238.229 248.096 237.192 249.436 236.786C249.6 236.81 249.763 236.84 249.927 236.929L249.729 237.163C250.344 236.959 250.81 236.622 251.202 236.215C252.045 235.922 252.591 235.754 253.335 235.342C253.687 235.63 254.451 235.317 255.285 234.856C255.702 234.623 256.133 234.355 256.54 234.097C256.947 233.844 257.309 233.571 257.617 233.392C256.932 232.504 258.574 231.666 256.639 231.81C256.867 231.755 256.49 232.073 255.721 232.599C255.558 232.732 255.349 232.871 255.265 232.995C255.275 232.956 255.285 232.911 255.3 232.861C254.521 233.348 253.494 233.968 252.318 234.662C253.003 233.615 253.747 232.638 255.404 232.395C255.657 231.423 255.91 230.356 256.098 229.83C257.304 229.984 258.797 229.736 260.122 229.508C260.787 229.404 261.392 229.275 261.893 229.21C262.394 229.146 262.796 229.146 263.039 229.265C263.828 228.511 264.726 227.747 265.638 226.973C266.1 226.596 266.546 226.184 266.983 225.767C267.419 225.356 267.851 224.939 268.268 224.522C269.096 223.689 269.855 222.855 270.446 222.022C271.011 221.159 271.418 220.3 271.577 219.467C272.311 218.475 273.02 219.015 273.581 218.961C273.194 219.576 272.539 220.097 272.45 220.573C272.822 220.072 273.338 219.521 273.893 218.946C274.171 218.663 274.459 218.371 274.747 218.078C275.019 217.77 275.292 217.468 275.545 217.165C276.562 215.964 277.331 214.838 277.024 214.119C278.348 213.31 278.284 213.841 278.234 214.198C278.209 214.377 278.19 214.511 278.358 214.407C278.522 214.303 278.889 213.975 279.564 213.166L279.489 213.891C281.33 212.804 282.694 211.475 283.776 210.031C284.812 208.538 285.596 206.95 286.405 205.373C287.184 203.771 287.918 202.123 289.004 200.581C289.555 199.817 290.121 199.023 290.82 198.264C291.515 197.505 292.328 196.766 293.301 196.046C292.785 196.458 292.532 196.666 292.254 196.632C292.695 196.151 293.137 195.664 293.549 195.153C293.945 194.632 294.337 194.107 294.714 193.566C295.473 192.489 296.213 191.388 296.907 190.257C297.562 189.101 298.192 187.925 298.812 186.745C299.12 186.154 299.442 185.569 299.73 184.969L300.568 183.153C301.134 181.947 301.699 180.742 302.26 179.541C302.786 178.321 303.327 177.12 303.902 175.935C304.195 175.344 304.492 174.759 304.785 174.169C305.063 173.573 305.351 172.988 305.653 172.407C306.254 171.247 306.908 170.111 307.623 168.999C308.962 166.365 308.183 165.75 308.069 163.86L309.414 163.622C309.28 162.515 309.096 161.399 308.932 160.308C308.982 159.206 309.31 158.269 309.766 157.376C310.202 156.478 310.733 155.615 311.264 154.707C311.795 153.799 312.306 152.842 312.643 151.75C312.946 150.654 313.04 149.414 312.812 147.985L311.894 148.535C312.132 147.588 312.316 146.05 312.47 144.8C312.609 143.55 312.802 142.592 313.244 142.81C313.124 142.592 312.489 142.066 313.005 141.367L313.635 141.382C313.556 140.563 313.492 139.75 313.392 138.936L313.04 136.5C313.407 134.675 314.017 134.853 314.603 134.823C314.896 134.809 315.183 134.739 315.426 134.327C315.669 133.916 315.908 133.171 315.952 131.792C315.764 129.714 314.27 125.953 313.834 126.722C313.784 127.536 313.392 128.791 312.762 128.84L312.48 127.015C311.562 126.846 310.634 126.42 309.766 126.583C308.898 126.752 308.079 127.496 307.385 129.624L308.441 132.67L307.474 133.588C307.538 132.75 307.529 131.911 307.529 131.068C307.082 131.767 307.067 132.343 307.166 132.879C307.271 133.414 307.548 133.911 307.767 134.436C307.271 134.645 306.908 135.042 306.685 135.617C307.196 136.634 307.712 137.666 308.218 138.713C307.836 138.852 307.524 138.49 307.211 138.331C306.898 138.172 306.641 138.222 306.313 139.174C306.953 140.633 308.094 138.028 308.337 140.37C307.32 141.709 306.695 141.193 307.196 142.964C306.695 143.133 306.442 142.736 306.318 142.051C306.497 142.83 306.462 143.823 306.422 144.725C306.373 145.628 306.392 146.452 306.809 146.918C306.164 147.568 306.01 148.823 305.802 149.865C305.569 150.902 305.246 151.705 304.418 151.447C304.721 151.988 305.162 154.32 304.924 155.689C304.18 154.201 303.907 155.466 303.416 156.895C302.955 158.338 302.414 159.995 301.427 159.355C301.744 159.926 301.873 160.645 301.794 161.419C301.724 162.198 301.516 163.056 301.268 163.949C301.015 164.842 300.752 165.78 300.494 166.692C300.221 167.6 300.003 168.498 299.943 169.361C299.874 169.133 299.72 168.687 299.918 168.454C299.09 170.12 298.371 170.403 297.612 171.366C298.951 172.184 298.083 174.962 298.301 176.808C296.004 178.246 297.22 174.764 295.617 174.814C296.208 175.027 296.103 176.054 295.974 176.996C295.821 177.924 295.682 178.777 296.327 178.663C294.704 179.799 295.24 179.799 293.688 179.998C295.26 181.173 293.276 181.595 293.578 183.411C291.485 185.127 291.673 183.069 290.815 185.747C290.235 186.159 290.101 185.747 290.111 185.236C290.121 184.725 290.269 184.115 290.269 184.115L290.274 184.145ZM245.636 231.026C245.636 231.026 245.626 231.011 245.626 231.006C246.122 230.723 246.549 230.48 246.817 230.326C246.569 230.47 246.231 230.674 245.636 231.026ZM240.625 233.491C241.26 233.248 242.044 232.921 242.848 232.524C243.185 232.772 243.18 233.248 242.654 233.457C242.823 233.1 241.518 233.442 240.625 233.491ZM255.017 234.702C254.278 235.307 253.896 235.277 253.673 235.143C254.05 234.905 254.481 234.613 255.032 234.206C255.032 234.156 255.057 234.087 255.057 234.032C255.086 234.26 255.101 234.484 255.017 234.702Z" fill="#D8F4FF"/>
<path d="M255.726 232.603C255.831 232.514 255.87 232.44 256.014 232.336C255.806 232.355 255.602 232.375 255.409 232.405C255.374 232.564 255.334 232.723 255.305 232.871C255.449 232.782 255.597 232.688 255.731 232.608L255.726 232.603Z" fill="#D8F4FF"/>
<path d="M263.153 27.692L263.068 27.6027C263.123 27.6969 263.177 27.7862 263.182 27.8805C263.148 27.7912 263.168 27.7614 263.153 27.6969V27.692Z" fill="#D8F4FF"/>
<path d="M165.735 239.053L165.68 239.331L166.201 239.197L165.735 239.053Z" fill="#D8F4FF"/>
<path d="M283.389 51.9807C283.349 52.0899 283.344 52.2436 283.419 52.4818C283.463 52.4222 283.433 52.2188 283.389 51.9807Z" fill="#D8F4FF"/>
<path d="M291.019 62.9493L291.698 64.7502C291.45 63.9465 291.217 63.3859 291.019 62.9493Z" fill="#D8F4FF"/>
<path d="M295.702 72.0675C295.935 72.0924 296.079 72.0576 296.218 72.0229C296.218 72.013 296.218 72.008 296.218 72.0031L295.707 72.0675H295.702Z" fill="#D8F4FF"/>
<path d="M157.847 15.5526C157.718 15.5972 157.594 15.6468 157.485 15.7063C156.676 16.1776 157.242 15.9097 157.847 15.5526Z" fill="#D8F4FF"/>
<path d="M205.432 8.73126C204.897 8.86521 204.366 8.99915 203.82 9.05869C204.668 9.25216 205.333 9.3613 205.432 8.73126Z" fill="#D8F4FF"/>
<path d="M113.025 43.1155C113.025 43.1155 113.02 43.1105 113.015 43.0956C112.936 43.175 112.861 43.2445 112.777 43.3189L113.02 43.1105L113.025 43.1155Z" fill="#D8F4FF"/>
<path d="M201.563 8.8652C202.406 9.15293 203.131 9.1579 203.815 9.05868C203.116 8.92969 202.287 8.7511 201.563 8.8652Z" fill="#D8F4FF"/>
<path d="M308 114.226L308.015 114.717C308.089 114.702 308.149 114.722 308.198 114.756L308 114.226Z" fill="#D8F4FF"/>
<path d="M308.203 114.756L308.377 115.287C308.357 115.039 308.332 114.821 308.203 114.756Z" fill="#D8F4FF"/>
<path d="M308.739 116.408L308.372 115.287C308.397 115.684 308.402 116.175 308.739 116.408Z" fill="#D8F4FF"/>
<path d="M306.298 100.836L305.867 100.776C305.966 100.841 306.105 100.866 306.298 100.836Z" fill="#D8F4FF"/>
<path d="M305.237 96.8672C305.415 97.8346 304.964 99.4618 305.524 100.722L305.867 100.776C305.5 100.528 305.569 99.7446 305.619 98.9211C305.663 98.0976 305.713 97.2294 305.237 96.8722V96.8672Z" fill="#D8F4FF"/>
<path d="M304.294 78.7053C304.666 79.8463 304.984 81.0071 305.326 82.1531C305.5 81.4139 305.728 80.4267 306.427 81.915C305.941 77.2021 305.891 83.1354 304.289 78.7053H304.294Z" fill="#D8F4FF"/>
<path d="M300.018 68.3865C301.079 70.0187 300.558 68.074 300.821 68.0442C300.375 67.5829 300.052 67.3199 299.933 67.3348C299.794 67.3547 299.859 67.6523 300.023 68.3865H300.018Z" fill="#D8F4FF"/>
<path d="M241.866 14.3867L242.461 13.5433C241.032 13.0572 242.287 13.8956 241.866 14.3867Z" fill="#D8F4FF"/>
<path d="M225.886 13.9948C226.273 14.3222 226.655 14.6447 227.027 15.0019L227.935 14.3272C227.256 14.1982 226.576 14.0742 225.886 13.9948Z" fill="#D8F4FF"/>
<path d="M219.011 4.73274L219.69 4.74266L217.145 4.5343L219.011 4.73274Z" fill="#D8F4FF"/>
<path d="M95.4187 47.5903L96.6738 48.0368C97.165 47.1339 96.2224 46.0524 95.4187 47.5903Z" fill="#D8F4FF"/>
<path d="M71.11 100.816C70.3262 101.302 69.6416 102.87 70.0732 103.991C70.2319 103.346 70.4899 102.721 70.7032 102.175C70.9066 101.625 71.1249 101.163 71.115 100.816H71.11Z" fill="#D8F4FF"/>
<path d="M148.307 244.331L147.042 244.281C147.791 244.445 148.526 244.634 149.285 244.753C148.957 244.614 148.625 244.49 148.307 244.331Z" fill="#D8F4FF"/>
<path d="M264.795 78.2042C261.188 77.9909 260.256 75.6047 258.609 73.7592C258.142 74.3843 257.731 74.8109 257.468 75.312C254.566 80.8781 248.702 82.039 243.389 80.387C236.16 78.1347 231.1 73.3127 227.469 66.8833C225.976 64.2441 224.611 61.4908 223.545 58.6531C219.338 47.4414 225.261 33.5806 238.73 30.599C243.265 29.5969 247.447 31.0058 251.52 32.8414C252.279 33.1837 253.013 33.5756 253.851 33.9874C254.829 32.1766 255.677 30.4105 256.704 28.7486C259.67 23.9514 266.477 23.1179 270.153 27.3893C271.944 29.4679 273.179 32.1667 274.136 34.7811C275.322 38.0156 275.932 41.4635 276.85 44.7972C277.629 47.62 278.457 50.4329 279.336 53.2308C280.735 57.6957 282.907 61.7289 286.177 65.1321C286.514 65.4843 286.708 65.9755 287.338 67.0024C286.231 66.5658 285.666 66.4666 285.249 66.159C281.692 63.5248 279.043 60.1613 277.728 55.9246C276.012 50.418 274.578 44.827 272.871 39.3154C272.008 36.5224 270.937 33.779 269.731 31.1199C268.546 28.5055 266.373 27.1809 263.431 27.2554C260.519 27.3298 258.45 28.6593 257.249 31.3283C257.076 31.7103 256.853 32.0675 256.659 32.4395C255.29 35.1085 255.315 35.0887 257.235 37.336C260.663 41.3593 263.738 45.5761 264.706 50.9686C265.187 53.6475 264.929 56.2173 263.714 58.6283C262.741 60.5581 261.357 62.0613 258.51 62.1655C259.12 61.5354 259.472 61.1435 259.849 60.7814C263.48 57.3038 264.383 53.2804 262.176 48.7958C260.742 45.8936 259.194 42.9567 257.18 40.4515C250.934 32.6777 243.012 30.8868 234.161 34.8654C227.444 37.8866 223.138 46.6625 224.969 54.1784C226.64 61.0641 229.607 67.4836 234.504 72.7521C238.066 76.582 242.501 78.73 247.888 78.7648C251.907 78.7896 254.377 76.8052 255.846 73.2829C256.361 72.0477 256.783 70.7777 257.418 69.0612C260.896 71.3531 262.473 74.6373 264.79 78.1943L264.795 78.2042Z" fill="#333333"/>
<path d="M187.727 196.954C188.188 195.803 188.521 194.826 188.962 193.908C193.472 184.562 198.001 175.23 202.525 165.894C202.615 165.705 202.699 165.512 202.788 165.323C203.374 164.038 204.083 162.694 205.735 163.016C207.655 163.388 207.074 165.13 207.114 166.39C207.357 173.831 207.541 181.278 207.754 188.719C207.769 189.319 207.833 189.92 207.923 191.16C208.726 190.133 209.257 189.572 209.644 188.932C214.273 181.317 218.881 173.692 223.5 166.067C223.937 165.348 224.254 164.465 224.874 163.984C225.544 163.468 226.556 163.001 227.33 163.116C228.506 163.289 228.372 164.455 228.287 165.422C227.915 169.495 227.578 173.568 227.201 177.641C226.66 183.485 226.08 189.329 225.549 195.178C225.405 196.746 225.003 197.877 222.751 197.153C222.944 188.253 224.532 179.402 224.363 170.274C223.932 170.929 223.475 171.569 223.069 172.239C218.465 179.869 213.871 187.504 209.272 195.138C208.459 196.488 207.749 198.031 205.328 197.143C204.48 188.312 204.822 179.268 203.805 170.175C203.329 171.053 202.808 171.906 202.376 172.804C198.795 180.271 195.228 187.742 191.661 195.213C190.956 196.686 190.262 198.135 187.732 196.949L187.727 196.954Z" fill="#333333"/>
<path d="M316.806 163.512C313.983 161.94 311.587 159.752 309.33 157.48C304.498 152.628 300.603 147.047 297.051 141.198C294.233 136.56 293.172 131.48 293.013 126.186C292.834 120.318 292.889 114.444 292.839 108.57C292.834 107.732 292.805 106.893 292.81 106.055C292.859 98.5788 289.992 92.4619 284.465 87.4365C280.75 84.0581 277.183 80.5011 273.68 76.8945C271.101 74.2354 269.994 70.8173 269.677 67.1959C269.568 65.9209 270.009 64.5963 270.193 63.3611C271.76 63.2618 272.038 64.1201 272.003 64.9585C271.731 71.2886 275.193 75.5749 279.713 79.3254C281.806 81.0666 283.87 82.8476 285.884 84.6881C290.185 88.6222 294.065 92.963 295.662 98.6829C296.55 101.858 296.868 105.281 296.902 108.595C296.957 114.355 296.699 120.129 296.367 125.884C296.138 129.788 296.932 133.375 298.788 136.768C303.024 144.517 307.727 151.934 313.849 158.373C315.174 159.762 316.334 161.305 317.575 162.778C317.322 163.021 317.069 163.269 316.816 163.512H316.806Z" fill="#333333"/>
<path d="M77.2766 120.367C75.6246 125.432 73.9825 130.502 72.3256 135.567C70.9266 139.849 69.5326 144.135 68.0939 148.401C67.3944 150.47 67.3498 150.455 64.7205 150.416C64.8296 149.607 64.8147 148.798 65.0528 148.064C68.5156 137.294 72.0081 126.529 75.5055 115.768C75.699 115.173 75.8677 114.533 76.2249 114.037C77.0137 112.951 78.7054 113.075 79.3503 114.265C79.6926 114.9 79.8364 115.639 80.0498 116.344C82.4955 124.47 84.9363 132.596 87.382 140.722C87.6499 141.605 87.9674 142.468 88.4635 143.942C89.0737 142.235 89.5202 141.089 89.8972 139.918C92.4819 131.946 95.0467 123.964 97.6363 115.997C98.4846 113.392 98.5144 113.402 101.263 113.655C101.149 114.345 101.114 115.049 100.911 115.694C97.4527 126.469 93.9801 137.234 90.4975 148C90.2743 148.694 90.0609 149.438 89.6343 150.004C88.8554 151.036 87.4019 150.862 86.8165 149.701C86.4891 149.056 86.3402 148.317 86.1319 147.618C83.6564 139.392 81.1908 131.162 78.7153 122.937C78.4474 122.044 78.1348 121.161 77.8421 120.268C77.6536 120.303 77.4651 120.332 77.2766 120.367Z" fill="#333333"/>
<path d="M137.84 126.291C137.537 133.176 135.716 138.891 131.777 143.798C128.106 148.367 123.408 150.991 117.371 150.822C111.894 150.669 107.836 147.494 106.397 142.175C103.961 133.166 108.987 120.6 116.944 115.739C119.608 114.111 122.505 113.313 125.596 113.258C131.515 113.154 135.831 116.483 137.215 122.267C137.577 123.785 137.696 125.358 137.835 126.296L137.84 126.291ZM109.26 136.823C109.329 137.76 109.339 138.921 109.508 140.057C110.232 144.978 113.343 147.623 118.289 147.702C121.856 147.757 124.897 146.482 127.357 144.026C133.102 138.281 135.171 131.242 133.955 123.299C133.33 119.216 130.587 116.87 126.459 116.448C122.58 116.051 119.206 117.336 116.428 120.015C111.74 124.529 109.518 130.15 109.265 136.823H109.26Z" fill="#333333"/>
<path d="M167.089 191.224C168.171 193.065 169.064 194.593 169.932 196.071C168.067 198.051 167.918 198.06 166.658 196.319C166.052 195.481 165.482 194.622 165.13 194.107C162.218 195.312 159.638 196.771 156.87 197.43C152.4 198.497 148.664 196.731 146.903 193.333C145.073 189.805 145.718 184.864 148.719 181.952C150.425 180.3 152.549 179.08 154.702 177.502C154.484 176.758 154.176 175.791 153.923 174.804C152.509 169.287 155.674 163.989 160.933 163.046C163.989 162.5 166.95 163.736 168.285 166.117C169.689 168.617 169.272 172.06 167.064 174.258C165.968 175.344 164.594 176.183 163.254 176.986C162.099 177.681 160.814 178.167 159.266 178.896C161.27 182.101 163.205 185.187 165.432 188.749C166.221 187.593 166.921 186.754 167.407 185.807C168.265 184.13 169.069 182.414 169.738 180.652C170.319 179.129 171.237 178.797 173.008 179.467C171.872 183.798 169.808 187.588 167.094 191.219L167.089 191.224ZM163.269 190.986C160.908 187.251 158.69 183.743 156.508 180.295C153.412 181.377 151.462 182.771 150.262 184.651C148.729 187.057 148.689 190.574 150.177 192.668C151.646 194.732 154.454 195.481 157.564 194.548C159.673 193.913 161.607 192.941 163.264 190.986H163.269ZM158.001 176.48C160.442 175.637 162.734 174.709 164.519 172.899C166.266 171.132 166.439 168.528 165.055 166.94C163.716 165.408 160.486 165.313 158.795 166.886C158.135 167.501 157.584 168.344 157.267 169.188C156.344 171.634 156.463 174.035 158.001 176.475V176.48Z" fill="#333333"/>
<path d="M177.448 118.606C176.639 119.96 175.831 120.318 174.63 119.281C169.763 115.084 164.465 115.461 159.499 118.651C151.229 123.964 147.484 131.901 147.94 141.665C148.168 146.541 152.088 148.957 156.627 147.027C158.978 146.03 161.34 144.537 163.056 142.677C165.889 139.616 168.235 136.108 170.711 132.73C171.609 131.5 172.343 130.23 174.322 131.162C174.322 131.559 174.422 131.991 174.308 132.348C172.532 137.835 170.716 143.312 168.94 148.798C168.429 150.371 167.526 151.031 165.685 150.381C165.586 147.424 167.422 144.924 167.848 141.54C166.767 142.677 166.028 143.475 165.264 144.254C162.749 146.824 160.06 149.136 156.528 150.222C150.53 152.063 145.777 149.17 144.696 143.004C142.761 131.956 150.475 118.383 160.958 114.419C163.964 113.283 167.07 112.941 170.24 113.576C173.35 114.201 175.85 115.714 177.448 118.606Z" fill="#333333"/>
<path d="M27.5977 179.268C27.7168 179.437 27.7515 179.541 27.8209 179.571C34.1412 182.424 35.1234 188.997 29.8301 193.556C28.7437 194.494 27.3993 195.213 26.0598 195.768C22.354 197.306 13.6079 197.718 9.42578 196.612C9.60438 195.853 9.73336 195.069 9.97645 194.32C12.9778 185.043 15.9841 175.766 19.0103 166.499C19.9926 163.493 20.0323 163.433 23.2271 163.478C25.9457 163.517 28.7139 163.423 31.368 163.904C36.2793 164.792 38.1397 168.999 35.8477 173.449C34.6373 175.806 32.6479 177.294 30.2766 178.316C29.4184 178.688 28.5155 178.951 27.6027 179.273L27.5977 179.268ZM12.9828 194.295C16.8622 194.34 20.4043 194.776 23.8026 193.581C25.3306 193.045 26.8635 192.172 28.0442 191.08C29.8301 189.433 30.5395 187.161 29.84 184.78C29.1108 182.29 27.0768 181.124 24.641 180.925C22.2845 180.737 19.8983 180.886 17.3137 180.886C15.8948 185.271 14.5008 189.602 12.9828 194.295ZM22.0613 166.355C20.8359 170.17 19.6453 173.881 18.3704 177.845C20.9004 177.845 22.9989 178.028 25.0527 177.8C28.0541 177.468 30.7281 176.262 32.4594 173.628C34.7464 170.135 33.2333 166.772 29.1405 166.395C26.8784 166.186 24.5814 166.355 22.0613 166.355Z" fill="#333333"/>
<path d="M366.469 190.659C367.293 188.183 368.136 185.713 368.94 183.232C370.885 177.244 372.814 171.257 374.744 165.269C375.221 163.785 375.811 162.51 377.989 163.21C377.889 163.959 377.904 164.678 377.696 165.323C374.521 175.21 371.316 185.088 368.116 194.965C367.953 195.461 367.898 196.086 367.566 196.418C367.099 196.885 366.43 197.346 365.82 197.391C365.413 197.421 364.773 196.79 364.559 196.314C364.088 195.267 363.81 194.136 363.478 193.03C361.345 185.896 359.221 178.757 357.083 171.624C356.875 170.929 356.607 170.249 356.21 169.108C355.749 170.145 355.387 170.795 355.163 171.485C352.589 179.363 350.049 187.251 347.469 195.124C346.695 197.485 346.65 197.47 344.041 197.078C344.274 196.175 344.458 195.277 344.741 194.409C347.801 184.929 350.867 175.444 353.968 165.978C354.37 164.753 354.414 163.016 356.235 162.992C358.115 162.967 358.061 164.718 358.438 165.958C360.695 173.385 362.917 180.821 365.165 188.253C365.403 189.046 365.686 189.83 365.949 190.619C366.122 190.634 366.296 190.649 366.474 190.664L366.469 190.659Z" fill="#333333"/>
<path d="M74.9647 196.895C76.706 191.552 78.2587 186.779 79.8115 182.002C81.528 176.718 83.2147 171.425 84.956 166.152C85.8341 163.503 85.8936 163.433 88.771 163.478C91.4896 163.522 94.2478 163.478 96.9119 163.929C103.019 164.966 105.98 168.751 105.851 174.888C105.608 186.521 97.2839 195.659 85.725 196.924C82.3118 197.296 78.8888 197.341 74.9597 196.895H74.9647ZM78.8094 194.241C80.6102 194.241 81.9596 194.26 83.304 194.241C94.2032 194.037 102.657 185.306 102.543 174.377C102.503 170.478 100.781 168.096 97.026 166.975C93.97 166.057 90.8694 166.429 87.8085 166.549C84.7774 175.875 81.8455 184.889 78.8044 194.245L78.8094 194.241Z" fill="#333333"/>
<path d="M200.02 139.864C195.317 139.864 190.922 139.898 186.521 139.844C185.286 139.829 184.621 140.439 184.016 141.382C182.314 144.026 180.618 146.68 178.812 149.255C177.616 150.956 177.244 150.946 175.066 149.726C175.582 148.848 176.064 147.945 176.624 147.097C183.505 136.684 190.396 126.276 197.286 115.868C197.46 115.605 197.644 115.347 197.807 115.084C198.517 113.953 199.41 113.055 200.873 113.412C202.456 113.794 202.074 115.183 202.128 116.269C202.644 126.747 203.135 137.229 203.631 147.707C203.651 148.124 203.84 148.649 203.656 148.942C203.259 149.577 202.763 150.406 202.143 150.589C201.096 150.892 200.719 149.974 200.655 149.056C200.496 146.65 200.377 144.239 200.228 141.828C200.199 141.322 200.119 140.816 200.015 139.869L200.02 139.864ZM199.861 136.768C200.169 130.22 199.504 121.488 198.606 119.683C194.97 124.207 188.466 134.486 187.831 136.768H199.866H199.861Z" fill="#333333"/>
<path d="M263.446 175.493C263.202 182.076 261.253 187.409 257.334 191.919C253.762 196.031 249.232 198.189 243.701 197.639C238.676 197.138 235.054 193.938 234.305 188.947C232.961 179.993 235.778 172.407 242.58 166.4C245.006 164.257 247.992 163.254 251.192 162.942C257.413 162.332 262.295 166.152 263.197 172.343C263.376 173.583 263.396 174.848 263.446 175.493ZM260.31 175.905C260.256 175.176 260.226 174.233 260.117 173.3C259.511 168.27 256.475 165.7 251.395 165.854C248.657 165.938 246.231 166.911 244.262 168.726C238.517 174.02 236.269 180.648 237.445 188.327C238.065 192.39 241.007 194.717 245.105 194.856C248.796 194.985 251.852 193.531 254.357 190.932C258.336 186.814 260.047 181.749 260.31 175.9V175.905Z" fill="#333333"/>
<path d="M71.1151 175.181C70.7778 181.61 69.0514 186.804 65.4497 191.284C62.6567 194.756 59.1295 197.024 54.6051 197.604C47.5656 198.507 42.2772 194.672 41.6323 187.613C40.8782 179.288 43.6613 172.135 49.9865 166.534C52.5811 164.237 55.7511 163.15 59.1841 162.922C64.8693 162.545 69.1357 165.661 70.5099 171.237C70.882 172.75 70.9861 174.327 71.1151 175.181ZM67.9004 176.659C67.8558 168.538 63.9813 164.872 57.5569 166.003C56.148 166.251 54.7192 166.826 53.484 167.556C46.9554 171.405 42.9469 182.185 45.2686 189.394C46.3352 192.703 48.7066 194.603 52.1991 194.841C56.649 195.143 60.1415 193.224 62.8849 189.9C66.2832 185.782 67.7516 180.935 67.9004 176.664V176.659Z" fill="#333333"/>
<path d="M340.077 174.972C339.794 181.511 338.038 186.799 334.347 191.358C331.539 194.826 327.982 197.053 323.463 197.614C316.567 198.472 311.319 194.742 310.624 187.816C309.766 179.249 312.638 171.916 319.271 166.271C321.821 164.098 324.922 163.106 328.25 162.912C333.821 162.59 338.033 165.631 339.432 171.028C339.824 172.536 339.943 174.114 340.077 174.977V174.972ZM313.551 185.107C313.774 188.461 314.191 191.963 317.758 193.829C321.459 195.764 325.105 195.044 328.488 192.906C334.764 188.932 338.544 178.152 336.203 171.128C335.146 167.957 332.804 166.137 329.471 165.874C325.403 165.551 322.079 167.094 319.39 170.031C315.55 174.233 313.754 179.268 313.546 185.107H313.551Z" fill="#333333"/>
<path d="M232.802 159.623C234.077 159.474 234.672 159.296 235.238 159.355C242.6 160.134 248.667 157.098 253.816 152.38C265.653 141.531 274.027 128.458 278.566 112.916C280.328 106.883 281.027 100.836 281.096 94.6299C281.111 93.3648 280.714 91.8368 282.342 91.0431C284.133 92.0006 283.86 93.7518 283.904 95.2252C284.177 104.368 282.56 113.164 278.988 121.607C275.362 130.185 270.177 137.85 264.462 145.063C260.717 149.786 256.113 153.943 251.415 157.768C246.648 161.642 240.982 163.051 234.88 160.789C234.355 160.595 233.883 160.238 232.807 159.628L232.802 159.623Z" fill="#333333"/>
<path d="M213.072 162.748C218.539 161.498 223.049 158.74 226.869 154.856C228.922 152.767 230.827 150.51 232.608 148.183C237.525 141.779 242.377 135.324 247.194 128.84C252.725 121.389 256.084 112.901 258.108 103.956C259.348 98.4647 259.72 92.7745 260.499 87.1785C260.618 86.3302 260.821 85.4869 261.04 84.3607C263.257 85.6605 263.019 87.5308 263.004 89.0339C262.974 92.2734 263.029 95.6171 262.255 98.7226C260.563 105.524 258.867 112.4 256.237 118.869C254.293 123.651 251.142 128.027 248.047 132.229C242.823 139.313 237.301 146.184 231.72 152.99C229.607 155.57 227.107 157.877 224.542 160.02C221.258 162.763 217.264 163.309 213.077 162.748H213.072Z" fill="#333333"/>
<path d="M119.375 179.129C123.78 174.263 127.645 169.996 131.509 165.73C132.144 165.03 132.735 164.276 133.449 163.671C134.402 162.868 135.448 162.451 136.57 163.974C135.959 164.723 135.344 165.546 134.665 166.3C130.388 171.063 126.047 175.771 121.855 180.603C120.794 181.823 119.97 183.361 119.41 184.884C118.1 188.421 116.984 192.028 115.863 195.635C115.357 197.257 114.469 197.857 112.633 197.167C112.752 196.468 112.792 195.768 112.995 195.114C113.933 192.112 114.751 189.056 115.922 186.149C117.004 183.475 116.979 180.925 116.314 178.197C115.347 174.228 114.598 170.205 113.749 166.206C113.64 165.695 113.323 165.135 113.442 164.688C113.605 164.083 114.027 163.19 114.469 163.111C114.97 163.016 115.932 163.547 116.131 164.038C116.602 165.184 116.756 166.464 117.009 167.695C117.753 171.251 118.482 174.808 119.375 179.134V179.129Z" fill="#333333"/>
<path d="M271.458 197.009C274.722 186.943 277.981 176.892 281.39 166.385C277.803 166.286 274.534 166.196 271.071 166.102C271.115 164.564 271.423 163.507 272.891 163.498C280.417 163.453 287.948 163.478 295.518 163.478C295.831 165.571 294.903 166.246 293.276 166.261C291.386 166.281 289.496 166.246 287.611 166.271C286.584 166.286 285.557 166.37 284.416 166.429C282.57 172.065 280.779 177.527 278.988 182.994C277.619 187.181 276.285 191.378 274.871 195.545C274.166 197.614 274.102 197.594 271.453 197.009H271.458Z" fill="#333333"/>
<path d="M306.209 163.314C306.01 164.262 305.921 164.981 305.703 165.656C302.567 175.439 299.417 185.222 296.252 195C295.483 197.376 295.443 197.361 292.834 197.182C292.938 196.493 292.948 195.788 293.156 195.148C296.322 185.261 299.506 175.379 302.706 165.507C303.495 163.081 303.53 163.091 306.209 163.314Z" fill="#333333"/>
<path d="M265.241 44.3706C267.752 46.2161 268.203 48.8156 269.478 50.8694C270.803 53.0026 271.914 55.2946 273.442 57.2641C274.97 59.2385 276.84 60.96 278.666 62.6814C280.442 64.3632 282.352 65.9011 284.748 67.9797C275.029 65.3703 265.112 53.2904 265.241 44.3756V44.3706Z" fill="#333333"/>
<path d="M263.709 34.7612C265.991 35.044 267.643 36.0362 268.526 38.1049C270.451 42.6095 272.385 47.114 274.315 51.6185C275 53.2159 275.679 54.8134 276.364 56.4058L275.744 56.758C274.429 54.7191 272.936 52.7744 271.849 50.6214C270.495 47.9276 269.334 45.1098 268.357 42.2572C267.375 39.3948 266.685 36.443 263.704 34.7563L263.709 34.7612Z" fill="#333333"/>
</svg>
