<svg width="24" height="25" viewBox="0 0 24 25" fill="none" xmlns="http://www.w3.org/2000/svg">
<circle cx="12" cy="12.9727" r="11" fill="#D1D7D9"/>
<path d="M12.7071 8.26555C13.0976 8.65607 13.0976 9.28924 12.7071 9.67976L10.4142 11.9727L16 11.9727C16.5523 11.9727 17 12.4204 17 12.9727C17 13.5249 16.5523 13.9727 16 13.9727L10.4142 13.9727L12.7071 16.2655C13.0976 16.6561 13.0976 17.2892 12.7071 17.6798C12.3166 18.0703 11.6834 18.0703 11.2929 17.6798L7.29289 13.6798C6.90237 13.2892 6.90237 12.6561 7.29289 12.2655L11.2929 8.26555C11.6834 7.87503 12.3166 7.87503 12.7071 8.26555Z" fill="#2B4F60"/>
<path fill-rule="evenodd" clip-rule="evenodd" d="M1 12.9727C1 6.89752 5.92487 1.97266 12 1.97266C18.0751 1.97266 23 6.89752 23 12.9727C23 19.0478 18.0751 23.9727 12 23.9727C5.92487 23.9727 1 19.0478 1 12.9727ZM12 3.97266C7.02944 3.97266 3 8.00209 3 12.9727C3 17.9432 7.02944 21.9727 12 21.9727C16.9706 21.9727 21 17.9432 21 12.9727C21 8.00209 16.9706 3.97266 12 3.97266Z" fill="#2B4F60"/>
</svg>
