<svg width="24" height="24" viewBox="0 0 24 24" fill="none" xmlns="http://www.w3.org/2000/svg">
<g clip-path="url(#clip0_198_713)">
<circle cx="12" cy="12" r="12" fill="#D1D7D9"/>
<path d="M12.7714 6.86497C13.1974 7.291 13.1974 7.98173 12.7714 8.40775L10.2701 10.9091L16.3636 10.9091C16.9661 10.9091 17.4545 11.3975 17.4545 12C17.4545 12.6025 16.9661 13.0909 16.3636 13.0909L10.2701 13.0909L12.7714 15.5922C13.1974 16.0183 13.1974 16.709 12.7714 17.135C12.3454 17.5611 11.6546 17.5611 11.2286 17.135L6.86497 12.7714C6.43895 12.3454 6.43895 11.6546 6.86497 11.2286L11.2286 6.86497C11.6546 6.43895 12.3454 6.43895 12.7714 6.86497Z" fill="#2B4F60"/>
<path fill-rule="evenodd" clip-rule="evenodd" d="M0 12C0 5.37258 5.37258 0 12 0C18.6274 0 24 5.37258 24 12C24 18.6274 18.6274 24 12 24C5.37258 24 0 18.6274 0 12ZM12 2.18182C6.57757 2.18182 2.18182 6.57757 2.18182 12C2.18182 17.4224 6.57757 21.8182 12 21.8182C17.4224 21.8182 21.8182 17.4224 21.8182 12C21.8182 6.57757 17.4224 2.18182 12 2.18182Z" fill="#2B4F60"/>
</g>
<defs>
<clipPath id="clip0_198_713">
<rect width="24" height="24" fill="white"/>
</clipPath>
</defs>
</svg>
