<svg width="24" height="25" viewBox="0 0 24 25" fill="none" xmlns="http://www.w3.org/2000/svg">
<circle cx="11" cy="11" r="11" transform="matrix(-1 0 0 1 23 1.97266)" fill="#F8C8B3"/>
<path d="M11.2929 8.26555C10.9024 8.65607 10.9024 9.28924 11.2929 9.67976L13.5858 11.9727L8 11.9727C7.44771 11.9727 7 12.4204 7 12.9727C7 13.5249 7.44772 13.9727 8 13.9727L13.5858 13.9727L11.2929 16.2655C10.9024 16.6561 10.9024 17.2892 11.2929 17.6798C11.6834 18.0703 12.3166 18.0703 12.7071 17.6798L16.7071 13.6798C17.0976 13.2892 17.0976 12.6561 16.7071 12.2655L12.7071 8.26555C12.3166 7.87503 11.6834 7.87503 11.2929 8.26555Z" fill="#2B4F60"/>
<path fill-rule="evenodd" clip-rule="evenodd" d="M23 12.9727C23 6.89752 18.0751 1.97266 12 1.97266C5.92487 1.97266 1 6.89752 1 12.9727C1 19.0478 5.92487 23.9727 12 23.9727C18.0751 23.9727 23 19.0478 23 12.9727ZM12 3.97266C16.9706 3.97266 21 8.00209 21 12.9727C21 17.9432 16.9706 21.9727 12 21.9727C7.02944 21.9727 3 17.9432 3 12.9727C3 8.00209 7.02944 3.97266 12 3.97266Z" fill="#2B4F60"/>
</svg>
