<svg width="23" height="23" viewBox="0 0 23 23" fill="none" xmlns="http://www.w3.org/2000/svg">
<g clip-path="url(#clip0_152_12)">
<path d="M19.2634 16.1436V18.7569C19.2644 18.9995 19.2146 19.2396 19.1172 19.4619C19.0198 19.6842 18.877 19.8837 18.6979 20.0477C18.5187 20.2118 18.3073 20.3366 18.077 20.4143C17.8467 20.4921 17.6027 20.5209 17.3606 20.4991C14.6749 20.2075 12.095 19.2916 9.82814 17.8248C7.71925 16.4874 5.93128 14.703 4.5912 12.5983C3.1164 10.3256 2.19845 7.73834 1.91163 5.04586C1.88981 4.80498 1.9185 4.5622 1.99585 4.33298C2.07321 4.10376 2.19754 3.89313 2.36093 3.7145C2.52431 3.53586 2.72318 3.39314 2.94487 3.29541C3.16655 3.19769 3.4062 3.1471 3.64855 3.14687H6.26702C6.69061 3.14271 7.10126 3.29242 7.42243 3.56808C7.74361 3.84374 7.95338 4.22655 8.01267 4.64516C8.12289 5.48152 8.32787 6.3027 8.62365 7.09294C8.74108 7.40472 8.7665 7.74357 8.69688 8.06933C8.62727 8.39509 8.46555 8.69411 8.23088 8.93095L7.12239 10.0372C8.3649 12.2181 10.1742 14.0238 12.3593 15.2638L13.4678 14.1575C13.7051 13.9233 14.0047 13.7619 14.3312 13.6924C14.6576 13.623 14.9971 13.6483 15.3095 13.7655C16.1013 14.0607 16.9241 14.2653 17.7621 14.3753C18.1861 14.435 18.5733 14.6481 18.8501 14.9742C19.1269 15.3002 19.274 15.7164 19.2634 16.1436Z" stroke="#2B4F60" stroke-width="1.84326" stroke-linecap="round" stroke-linejoin="round"/>
</g>
<defs>
<clipPath id="clip0_152_12">
<rect width="22" height="22" fill="white" transform="translate(0.237549 0.5)"/>
</clipPath>
</defs>
</svg>
