<svg width="24" height="24" viewBox="0 0 24 24" fill="none" xmlns="http://www.w3.org/2000/svg">
<path d="M12 0.655655C18.0753 0.655655 23 5.58035 23 11.6557C23 17.7309 18.0753 22.6556 12 22.6556C10.1278 22.6583 8.28609 22.1811 6.65071 21.2696L6.31521 21.0738L2.98001 22.055C2.79851 22.1085 2.60636 22.1148 2.42178 22.0732C2.23719 22.0316 2.06628 21.9436 1.92526 21.8174C1.78424 21.6912 1.67777 21.5312 1.61595 21.3523C1.55413 21.1735 1.539 20.9819 1.57201 20.7955L1.60061 20.6756L2.58181 17.3404C1.54457 15.6258 0.997456 13.6596 1.00001 11.6557C1.00001 5.58035 5.92471 0.655655 12 0.655655ZM12 2.85565C10.4244 2.85537 8.87761 3.27812 7.52117 4.07975C6.16473 4.88138 5.0484 6.0325 4.28875 7.41289C3.52909 8.79328 3.15399 10.3523 3.2026 11.9272C3.25121 13.502 3.72176 15.0349 4.56511 16.3658C4.78291 16.709 4.87641 17.1314 4.80271 17.5505L4.75981 17.7298L4.27471 19.3809L5.92581 18.8958C6.40211 18.755 6.89711 18.8408 7.28981 19.0905C8.44297 19.8207 9.75016 20.2726 11.1081 20.4106C12.466 20.5485 13.8373 20.3687 15.1138 19.8854C16.3902 19.402 17.5367 18.6284 18.4627 17.6257C19.3886 16.6229 20.0687 15.4185 20.449 14.1077C20.8293 12.7968 20.8995 11.4155 20.654 10.0729C20.4085 8.73024 19.854 7.46312 19.0345 6.37167C18.2149 5.28022 17.1527 4.39437 15.9319 3.78414C14.711 3.17392 13.3649 2.85604 12 2.85565ZM8.81221 6.35805C8.93411 6.30585 9.06742 6.28602 9.19924 6.30047C9.33106 6.31492 9.45691 6.36318 9.56461 6.44055C10.119 6.84535 10.559 7.38875 10.9374 7.91895L11.2971 8.44035L11.4654 8.68785C11.5629 8.82971 11.6107 8.99978 11.6016 9.17165C11.5924 9.34352 11.5268 9.50755 11.4148 9.63825L11.3323 9.72185L10.3159 10.4765C10.2675 10.5123 10.2336 10.5642 10.22 10.6229C10.2065 10.6816 10.2144 10.7432 10.2422 10.7966C10.4732 11.2146 10.8813 11.8383 11.3499 12.3069C11.8196 12.7754 12.4719 13.2111 12.9185 13.4674C13.0153 13.5224 13.1319 13.5048 13.2111 13.4332L13.2529 13.3837L13.914 12.3773C14.0352 12.2153 14.2145 12.1068 14.4141 12.0743C14.6137 12.0419 14.8181 12.0882 14.9843 12.2035L15.5816 12.6203C16.1756 13.0438 16.7465 13.4992 17.1986 14.0767C17.2822 14.1853 17.3354 14.3142 17.3526 14.4501C17.3698 14.586 17.3505 14.7241 17.2965 14.85C16.8609 15.8664 15.7576 16.7321 14.6114 16.6903L14.4365 16.6793L14.2264 16.6595L14.1076 16.6441L13.8458 16.6001C12.8294 16.4087 11.2003 15.8323 9.51181 14.1449C7.82441 12.4564 7.24801 10.8274 7.05661 9.81095L7.01261 9.54915L6.98511 9.32035L6.97081 9.12785L6.96641 9.04535C6.92461 7.89695 7.79471 6.79365 8.81221 6.35805Z" fill="white"/>
</svg>
